<?xml version="1.0" encoding="utf-8"?>
<!-- Generator: Adobe Illustrator 17.0.0, SVG Export Plug-In . SVG Version: 6.00 Build 0)  -->
<!DOCTYPE svg PUBLIC "-//W3C//DTD SVG 1.1//EN" "http://www.w3.org/Graphics/SVG/1.1/DTD/svg11.dtd">
<svg version="1.1" id="Layer_1" xmlns="http://www.w3.org/2000/svg" xmlns:xlink="http://www.w3.org/1999/xlink" x="0px" y="0px"
	 width="91.302px" height="6.116px" viewBox="0 0 91.302 6.116" enable-background="new 0 0 91.302 6.116" xml:space="preserve">
<g>
	<g>
		<path d="M91.302,3.497c-2.151,0-4.302,0-6.453,0c-9.349,0-18.698,0.006-28.047-0.011c-0.86-0.001-1.517,0.096-2.095,0.91
			c-0.773,1.088-2.332,0.969-3.194-0.077c-1.056-1.281-2.164-1.166-2.978,0.237c-0.546,0.943-1.361,1.522-2.533,1.557
			c-1.268,0.038-2.159-0.478-2.813-1.54c-0.273-0.443-0.324-1.138-1.135-1.087c-0.525,0.033-0.914,0.07-1.276,0.589
			c-1.022,1.462-2.534,1.371-3.684-0.015C36.8,3.707,36.12,3.521,35.617,3.52C26.078,3.489,16.54,3.504,7.001,3.491
			c-2.073-0.003-4.147-0.076-6.22-0.124C0.58,3.363,0.38,3.316,0,3.264c0.257-0.119,0.33-0.18,0.406-0.184
			C2.76,2.95,5.114,2.732,7.469,2.717c7.498-0.047,14.997-0.018,22.495-0.018c1.99,0,3.981-0.002,5.971,0.002
			c0.552,0.001,0.955-0.034,1.278-0.689c0.602-1.221,2.538-1.289,3.36-0.226c0.765,0.989,0.765,0.989,2.151,0.842
			c0.377-1.033,0.908-1.899,2.057-2.435c1.323-0.617,3.299,0.334,3.872,1.636c0.157,0.357,0.602,0.811,0.927,0.821
			c0.6,0.019,1.329,0.402,1.782-0.579c0.657-1.419,2.899-1.396,3.63,0.03c0.323,0.629,0.712,0.597,1.205,0.598
			C63.281,2.7,70.364,2.7,77.448,2.701c1.723,0,3.447-0.042,5.169,0.01c2.894,0.087,5.787,0.235,8.68,0.357
			C91.299,3.21,91.3,3.354,91.302,3.497z"/>
	</g>
</g>
</svg>
